# xmcd
#
# Track frame offsets: 
#        150
#        21565
#        32960
#        61261
#        95149
#        123765
#        156029
#        177716
#
# Disc length: 2607 seconds
#
# Revision: 1
# Processed by: cddbd v1.5.2PL0 Copyright (c) Steve Scherf et al.
# Submitted via: ExactAudioCopy v0.99pb4
#
DISCID=6d0a2d08
DTITLE=Lightnin' Hopkins - Take It Easy
DYEAR=1960
DGENRE=
TTITLE0=The Trouble Blues
TTITLE1=Lightnin's Piano Boogie
TTITLE2=Wonder Why
TTITLE3=Mister Charlie
TTITLE4=Take It Easy
TTITLE5=Mighty Crazy
TTITLE6=Your Own Fault, Baby, To Treat Me The Way You Do
TTITLE7=I've Had My Fun If I Don't Get Well No More
EXTD=
EXTT0=
EXTT1=
EXTT2=
EXTT3=
EXTT4=
EXTT5=
EXTT6=
EXTT7=
PLAYORDER=
